<?xml version="1.0" encoding="utf-8"?>
<!-- Generator: Adobe Illustrator 18.1.1, SVG Export Plug-In . SVG Version: 6.00 Build 0)  -->
<svg version="1.1" id="图层_1" xmlns="http://www.w3.org/2000/svg" xmlns:xlink="http://www.w3.org/1999/xlink" x="0px" y="0px"
	 viewBox="0 0 612 792" enable-background="new 0 0 612 792" xml:space="preserve">
<path fill="#DDDDDD" d="M563.7,130.4H48.3C20.8,130.4,0,151.2,0,178.1v449.2c0,25.7,20.8,48.3,48.3,48.3h515.3
	c25.7,0,48.3-22.6,48.3-48.3V178.1C612,152.4,591.2,130.4,563.7,130.4z M157.9,212.4c27.5,0,51.4,22.6,51.4,51.4
	c0,28.8-22.6,51.4-51.4,51.4c-27.5,0-51.4-22.6-51.4-51.4C106.5,235,130.4,212.4,157.9,212.4L157.9,212.4z M120.6,603.5
	c-4.9,0-9.8-1.8-14.7-4.9c-9.8-8-9.8-19.6-1.8-28.8l99.8-140.1c8-8,19.6-9.8,28.8-3.1l86.9,61.2l156.1-167.7c8-8,46.5-50.2,69.2-3.1
	v285.2C545.9,603.5,120.6,603.5,120.6,603.5z"/>
<text transform="matrix(1 0 0 1 127 583.8779)" fill="#D7D7D7" font-family="'FZCHSJW--GB1-0'" font-size="51.9353">图片正在加载中...</text>
</svg>
